<?xml version="1.0" standalone="no"?>
<!DOCTYPE svg PUBLIC "-//W3C//DTD SVG 20010904//EN"
 "http://www.w3.org/TR/2001/REC-SVG-20010904/DTD/svg10.dtd">
<svg version="1.0" xmlns="http://www.w3.org/2000/svg"
 width="512.000000pt" height="512.000000pt" viewBox="0 0 512.000000 512.000000"
 preserveAspectRatio="xMidYMid meet">
<metadata>
Created by potrace 1.11, written by Peter Selinger 2001-2013
</metadata>
<g transform="translate(0.000000,512.000000) scale(0.100000,-0.100000)"
fill="#000000" stroke="none">
<path d="M1070 5100 c-30 -11 -62 -20 -72 -20 -34 0 -68 -23 -68 -45 0 -35 24
-47 97 -48 51 -2 82 4 123 22 57 24 120 75 120 98 0 21 -134 16 -200 -7z"/>
<path d="M3585 5111 c-7 -12 -65 -234 -72 -276 -3 -16 -10 -36 -16 -44 -9 -10
-2 -21 27 -47 21 -19 33 -34 27 -34 -7 0 -9 -4 -6 -10 10 -16 -7 -12 -27 7
-10 9 -18 12 -18 6 0 -5 9 -18 20 -28 11 -10 20 -24 20 -31 0 -6 14 -21 31
-32 24 -15 27 -20 15 -25 -9 -4 -15 -1 -13 5 1 7 -6 14 -16 16 -18 4 -18 3 0
-25 12 -20 13 -25 3 -17 -21 16 -70 15 -70 -2 0 -7 37 -45 83 -85 85 -75 113
-107 83 -96 -22 9 -20 -2 9 -45 14 -21 28 -52 31 -70 6 -33 6 -32 -27 14 -33
47 -59 66 -40 30 5 -10 6 -23 2 -30 -4 -7 -23 9 -50 43 -24 30 -51 61 -59 68
-13 10 -14 9 -3 -10 6 -13 8 -23 3 -23 -4 0 -17 17 -28 38 -10 21 -45 62 -76
91 -47 43 -59 50 -64 37 -4 -11 4 -26 21 -44 51 -50 144 -192 127 -192 -4 0
-15 15 -25 33 -10 17 -31 48 -48 67 -24 28 -29 31 -28 15 4 -54 -5 -62 -11
-10 -4 42 -14 69 -30 87 -12 15 -28 37 -34 49 -11 22 -81 53 -97 43 -5 -3 -9
-14 -9 -24 0 -40 -19 -28 -26 17 l-8 48 -11 -39 c-10 -36 -12 -37 -27 -22 -18
18 -32 88 -26 127 3 16 7 8 12 -26 11 -70 19 -87 23 -45 2 19 9 48 15 64 l12
29 23 -29 23 -29 6 32 c3 17 14 40 24 51 23 24 21 71 -3 97 -18 20 -19 19 -12
-28 5 -32 3 -52 -5 -62 -12 -14 -16 -13 -39 8 -62 58 -111 71 -111 30 -1 -24
-19 -46 -50 -60 -14 -6 -19 -12 -12 -12 6 -1 12 -5 12 -10 0 -5 -18 -7 -41 -4
-40 6 -40 6 -34 -23 4 -16 8 -34 10 -41 2 -6 19 -10 37 -9 18 1 38 -2 44 -6 7
-5 9 3 6 25 -3 27 1 23 27 -28 17 -33 41 -75 52 -92 35 -56 15 -59 -26 -4 -22
28 -45 51 -53 51 -19 0 -94 46 -119 72 -33 36 -97 147 -89 155 7 8 66 -30 66
-43 0 -6 12 -19 26 -29 25 -16 26 -16 19 5 -5 16 -4 20 5 15 8 -5 11 0 10 16
-4 47 0 60 23 70 24 10 28 11 -64 -8 -36 -7 -40 14 -4 23 14 3 25 10 25 14 0
5 10 11 23 13 12 3 4 4 -18 4 -33 -2 -45 4 -72 32 -20 20 -38 31 -48 27 -19
-7 -19 -20 0 -36 8 -7 15 -18 15 -24 -1 -6 -6 -5 -13 4 -7 8 -20 21 -30 29
-16 13 -16 12 -2 -15 17 -33 10 -48 -10 -21 -13 18 -14 18 -42 1 l-28 -18 25
29 25 30 -25 -20 c-36 -29 -60 -60 -50 -63 5 -2 6 -10 3 -18 -3 -8 0 -14 6
-14 6 0 11 -6 11 -14 0 -7 13 -19 29 -26 31 -12 181 -149 181 -165 0 -5 -5 -4
-12 3 -39 39 -30 -11 13 -75 30 -42 45 -75 60 -128 l8 -30 -30 35 c-16 19 -43
59 -59 88 -17 28 -35 52 -40 52 -6 0 -10 5 -10 11 0 5 -15 23 -32 40 -37 33
-24 40 16 8 76 -60 -2 32 -101 119 -18 16 -33 34 -33 41 0 7 -4 10 -9 6 -6 -3
-15 5 -22 17 -21 41 -90 118 -106 118 -9 0 -11 -5 -7 -12 6 -9 3 -9 -9 0 -23
19 -31 50 -16 68 22 27 0 27 -25 -1 -29 -31 -45 -27 -38 11 3 19 1 25 -7 20
-20 -13 -12 -55 14 -72 14 -9 25 -19 25 -23 0 -16 -47 -5 -70 16 -41 38 -56
27 -18 -14 18 -19 19 -23 5 -23 -9 0 -19 5 -22 10 -4 6 -11 8 -16 5 -5 -4 -9
1 -9 10 0 9 -5 25 -10 36 -15 26 -51 9 -43 -21 4 -16 2 -19 -11 -14 -31 12
-16 -15 25 -43 22 -15 49 -35 59 -43 20 -17 40 -67 21 -56 -6 4 -25 -1 -43
-10 -18 -10 -27 -19 -21 -21 7 -3 22 2 33 10 15 10 31 12 63 6 23 -4 53 -8 66
-9 20 0 22 2 11 15 -11 13 -10 15 6 12 11 -2 34 -11 52 -20 40 -22 44 -43 5
-31 -35 11 -145 11 -196 1 -28 -6 -37 -13 -35 -25 2 -9 10 -17 18 -18 31 -2
35 -5 20 -15 -13 -9 -12 -12 4 -22 29 -18 66 -55 66 -66 0 -6 -12 1 -27 15
-35 32 -63 48 -63 35 0 -5 6 -12 13 -14 9 -4 9 -6 -1 -6 -8 -1 -16 8 -19 19
-3 11 -11 20 -18 20 -7 0 -18 7 -25 15 -7 9 -19 14 -26 11 -7 -3 -36 6 -64 20
-43 21 -60 23 -118 19 -64 -5 -66 -4 -42 10 24 15 22 16 -35 11 -38 -3 -51 -2
-35 3 l25 8 -31 14 c-27 12 -29 16 -17 28 8 7 12 16 9 19 -4 3 -16 -4 -29 -16
-28 -26 -37 -28 -37 -6 0 13 -8 14 -47 8 -26 -4 -59 -10 -73 -15 l-25 -7 27
-1 c21 -1 29 -7 34 -25 3 -14 12 -27 20 -30 9 -3 12 -1 9 4 -3 6 0 10 8 10 15
0 45 -29 46 -45 0 -5 8 -12 17 -14 12 -2 15 2 11 13 -4 9 -3 16 2 16 4 0 12
-16 18 -34 10 -34 10 -35 -19 -41 -34 -8 -49 0 -19 10 37 11 24 28 -16 21 -21
-3 -54 -6 -73 -6 l-35 0 30 -16 c18 -9 68 -18 122 -21 51 -3 90 -9 88 -13 -6
-10 20 -20 48 -19 20 1 20 2 -3 9 -20 6 -14 8 28 9 32 1 51 -3 47 -9 -3 -5
-12 -7 -20 -4 -8 3 -24 -1 -35 -9 -17 -11 -29 -13 -53 -6 -18 6 -95 9 -172 7
-90 -2 -139 1 -137 7 2 6 12 10 23 9 13 0 16 3 9 10 -7 7 -30 6 -72 -2 -35 -7
-71 -13 -81 -14 -9 -1 -16 -7 -14 -13 2 -5 15 -9 28 -7 15 2 28 -4 36 -17 14
-23 -1 -41 -20 -22 -14 14 -47 15 -47 1 0 -5 9 -10 19 -10 11 0 23 -4 26 -10
8 -13 -31 -13 -55 0 -29 16 -92 21 -107 9 -10 -9 -13 -8 -13 5 0 20 -4 20 -58
-1 -26 -10 -41 -21 -38 -29 3 -7 -6 -15 -20 -18 -13 -4 -24 -13 -24 -21 0 -8
-4 -15 -9 -15 -14 0 -23 -32 -11 -44 5 -5 10 -19 10 -30 0 -19 -1 -19 -20 2
-28 30 -46 28 -54 -5 -7 -33 -33 -69 -42 -60 -4 3 8 31 25 61 17 30 27 58 22
61 -11 6 -41 -4 -41 -15 0 -5 -15 -23 -34 -41 -19 -17 -32 -38 -29 -46 3 -7 1
-19 -5 -26 -21 -26 -44 -125 -33 -146 7 -13 8 -33 2 -58 l-9 -38 -2 35 c-1 32
-2 33 -11 12 -5 -13 -18 -26 -29 -29 -11 -3 -17 -10 -14 -15 3 -5 -2 -15 -12
-23 -11 -7 -16 -17 -11 -21 4 -4 21 2 37 15 l30 22 0 -29 c0 -16 7 -35 15 -42
8 -6 17 -22 21 -33 4 -12 27 -51 52 -86 44 -62 45 -64 29 -90 -15 -24 -22 -27
-114 -34 -112 -9 -137 -2 -202 58 -32 30 -39 44 -44 87 -5 41 -3 56 14 79 11
16 28 29 38 29 42 0 113 33 122 57 5 13 9 25 9 27 0 1 -13 1 -28 -2 -29 -4
-72 12 -129 49 -24 15 -40 19 -68 13 -20 -3 -34 -11 -32 -18 3 -6 -2 -26 -9
-45 -19 -46 -17 -95 5 -141 18 -37 18 -46 8 -165 -1 -11 2 -39 6 -61 l7 -42
67 -3 c104 -4 186 0 208 10 11 6 46 15 77 21 32 6 60 16 63 21 7 10 53 2 73
-14 6 -5 12 -26 12 -46 0 -20 9 -55 20 -79 19 -41 22 -43 57 -40 30 2 43 11
70 46 18 24 33 55 33 70 0 28 -31 99 -63 145 -19 28 -22 28 -79 22 l-59 -7 24
49 c14 27 32 73 41 103 9 30 27 68 41 84 14 16 25 33 25 38 0 4 5 8 11 8 7 0
18 8 25 18 13 16 16 14 46 -20 49 -55 198 -119 225 -96 13 10 12 14 -3 25 -10
7 -15 14 -11 14 27 5 35 4 59 -9 15 -9 24 -21 21 -29 -3 -8 0 -11 8 -8 8 3 39
-4 69 -15 30 -11 63 -20 72 -20 10 0 18 -5 18 -12 0 -6 -3 -8 -7 -5 -3 4 -11
3 -17 -2 -14 -12 -104 -31 -186 -40 -36 -3 -84 -15 -108 -26 l-44 -20 7 -70
c4 -38 11 -78 16 -87 5 -9 9 -32 9 -50 0 -22 9 -41 24 -55 28 -27 42 -29 50
-8 7 19 46 20 46 1 0 -8 -4 -18 -10 -21 -20 -12 -9 -32 31 -54 31 -18 43 -21
49 -11 5 8 20 10 46 6 93 -14 99 -13 96 16 -1 14 2 29 8 33 5 3 10 10 10 16 0
8 -45 6 -105 -6 -11 -2 -27 0 -35 5 -35 22 51 63 161 77 32 4 55 0 77 -11 40
-21 92 -21 92 -1 0 8 -3 15 -7 15 -5 0 -34 25 -65 54 -66 62 -75 67 -141 80
l-38 8 20 22 c11 12 22 31 24 41 4 32 17 45 42 45 13 0 27 5 30 10 3 6 -4 10
-16 10 -17 0 -20 3 -12 11 8 8 17 8 32 0 14 -8 33 -8 62 -2 28 6 49 6 61 0 30
-16 32 13 4 66 -15 26 -26 50 -26 51 0 11 49 2 60 -11 7 -8 28 -15 47 -15 l35
0 -21 -34 c-28 -44 -26 -54 7 -49 74 11 97 6 129 -25 15 -15 38 -34 49 -42
107 -74 201 -194 225 -287 34 -127 78 -206 133 -235 20 -11 20 -10 3 16 -10
14 -16 26 -15 27 2 0 29 6 60 13 69 15 78 9 78 -50 0 -54 23 -64 83 -35 23 11
58 20 77 19 71 -2 133 52 134 118 1 19 4 34 7 34 8 0 19 -38 19 -69 0 -20 2
-21 15 -11 8 7 15 18 15 26 0 7 5 16 10 19 15 10 1 -71 -22 -125 -24 -56 -65
-99 -145 -151 -75 -49 -123 -58 -194 -35 -57 19 -64 16 -72 -31 -9 -47 23 -83
73 -83 48 0 146 44 153 69 2 11 18 26 34 35 27 13 32 13 51 0 26 -18 36 -53
57 -199 9 -60 24 -141 34 -180 26 -97 137 -382 166 -426 28 -42 91 -69 165
-69 55 0 85 -19 93 -60 9 -43 79 -107 189 -172 216 -130 347 -240 451 -381 71
-95 181 -261 246 -369 29 -48 73 -111 99 -140 142 -158 206 -269 240 -413 34
-146 41 -191 52 -375 6 -96 16 -187 22 -201 10 -27 39 -39 99 -39 l29 0 0
1070 0 1071 -47 -6 c-75 -9 -347 -35 -463 -45 -58 -5 -217 -19 -353 -30 -137
-12 -258 -19 -270 -16 -46 12 -95 131 -76 184 19 51 5 49 754 122 239 23 378
38 423 46 l32 5 0 1319 0 1320 -764 0 c-468 0 -767 -4 -771 -9z m-1185 -261
c0 -5 -2 -10 -4 -10 -3 0 -8 5 -11 10 -3 6 -1 10 4 10 6 0 11 -4 11 -10z m105
-10 c-3 -5 -3 -10 2 -10 4 0 17 -12 27 -27 l19 -26 -34 24 c-19 13 -36 25 -39
27 -2 2 2 7 10 12 19 12 23 12 15 0z m635 -90 c0 -5 -6 -10 -14 -10 -8 0 -23
-3 -33 -6 -16 -6 -16 -5 2 9 23 19 45 22 45 7z m-1120 -75 c-14 -17 -30 -20
-30 -6 0 5 8 12 18 14 9 3 19 5 21 6 2 0 -2 -6 -9 -14z m539 -5 c21 -10 41
-27 45 -36 5 -12 -5 -9 -41 11 -27 15 -52 32 -57 36 -18 16 13 10 53 -11z
m461 -134 c0 -6 -13 4 -30 22 -16 18 -30 36 -30 39 0 4 14 -6 30 -22 17 -16
30 -33 30 -39z m611 37 c13 -17 13 -17 -6 -3 -11 8 -22 16 -24 17 -2 2 0 3 6
3 6 0 17 -8 24 -17z m-657 -39 c3 -8 2 -12 -4 -9 -6 3 -10 10 -10 16 0 14 7
11 14 -7z m-456 -3 c7 -4 14 -19 16 -32 3 -21 9 -41 23 -74 3 -5 -5 1 -16 15
-11 14 -21 30 -21 35 0 6 -7 22 -14 38 -15 28 -11 33 12 18z m742 -35 c0 -6 9
-17 21 -24 12 -8 18 -20 15 -30 -2 -9 -7 -29 -10 -44 -4 -16 -12 -28 -20 -28
-8 0 -13 11 -14 28 0 30 -10 90 -16 109 -3 7 1 10 10 6 7 -3 14 -10 14 -17z
m-1415 -6 c8 -13 -35 -13 -55 0 -11 7 -7 10 17 10 17 0 35 -4 38 -10z m1035
-6 c0 -8 -4 -12 -10 -9 -5 3 -10 10 -10 16 0 5 5 9 10 9 6 0 10 -7 10 -16z
m339 -79 c1 -29 -2 -36 -9 -25 -5 8 -9 35 -9 60 0 34 2 40 9 25 5 -11 9 -38 9
-60z m221 55 c0 -5 -2 -10 -4 -10 -3 0 -8 5 -11 10 -3 6 -1 10 4 10 6 0 11 -4
11 -10z m-2078 -72 c-6 -6 -15 -8 -19 -4 -4 4 -1 11 7 16 19 12 27 3 12 -12z
m1338 9 c0 -7 -7 -22 -15 -33 -13 -17 -14 -16 -4 14 11 33 19 41 19 19z
m-1261 -79 c1 -4 -5 -5 -12 -2 -7 2 -14 21 -14 42 l-2 37 14 -35 c7 -19 14
-38 14 -42z m1919 41 c-3 -8 -7 -3 -11 10 -4 17 -3 21 5 13 5 -5 8 -16 6 -23z
m-448 -27 c0 -15 -2 -15 -10 -2 -13 20 -13 33 0 25 6 -3 10 -14 10 -23z m534
-32 l6 -35 -15 30 c-16 33 -21 82 -6 55 5 -8 11 -31 15 -50z m-2057 22 c-12
-3 -16 -9 -12 -23 4 -10 2 -19 -3 -19 -12 0 -22 37 -15 56 4 11 9 11 26 2 20
-11 20 -13 4 -16z m384 -7 l34 -16 -40 6 c-22 4 -47 11 -55 16 -27 16 25 10
61 -6z m975 -22 c-8 -15 -15 -25 -16 -21 0 12 23 58 27 54 3 -2 -2 -17 -11
-33z m631 17 c-1 -11 -5 -20 -9 -20 -4 0 -8 9 -8 20 0 11 4 20 9 20 6 0 9 -9
8 -20z m-660 -12 c-3 -8 -6 -5 -6 6 -1 11 2 17 5 13 3 -3 4 -12 1 -19z m-24
-55 c4 -51 2 -61 -9 -56 -14 5 -17 51 -6 101 6 32 9 26 15 -45z m-1403 -43 c0
-5 -5 -10 -11 -10 -5 0 -7 5 -4 10 3 6 8 10 11 10 2 0 4 -4 4 -10z m290 -140
c0 -5 -4 -10 -10 -10 -5 0 -10 5 -10 10 0 6 5 10 10 10 6 0 10 -4 10 -10z m83
-41 c15 -6 27 -15 27 -19 0 -16 -95 28 -99 46 -3 17 -2 17 20 1 13 -10 36 -22
52 -28z m-393 -163 c-1 -13 -50 45 -50 59 0 6 11 -3 25 -19 14 -16 25 -34 25
-40z m740 -166 c18 -12 2 -12 -25 0 -13 6 -15 9 -5 9 8 0 22 -4 30 -9z"/>
<path d="M852 5100 c10 -6 15 -17 11 -27 -4 -11 -2 -14 8 -11 25 8 17 43 -11
46 -21 2 -22 1 -8 -8z"/>
<path d="M2525 5020 c3 -5 15 -10 25 -10 10 0 22 5 25 10 4 6 -7 10 -25 10
-18 0 -29 -4 -25 -10z"/>
<path d="M2087 4983 c-14 -13 -6 -33 13 -33 11 0 20 -7 20 -16 0 -11 6 -14 22
-8 20 6 21 5 10 -8 -11 -13 -4 -18 48 -31 61 -15 72 -13 44 7 -14 10 -13 15 6
39 20 26 20 27 3 33 -10 3 -28 10 -41 15 -26 10 -115 12 -125 2z"/>
<path d="M2732 4960 c13 -20 28 -27 28 -12 0 10 -22 32 -32 32 -5 0 -3 -9 4
-20z"/>
<path d="M2590 4940 c0 -11 7 -20 15 -20 8 0 15 9 15 20 0 11 -7 20 -15 20 -8
0 -15 -9 -15 -20z"/>
<path d="M2642 4918 c-17 -17 -15 -31 3 -24 8 3 15 2 15 -2 0 -5 6 -17 14 -27
12 -16 16 -17 30 -6 18 15 20 30 6 51 -9 13 -11 13 -20 0 -9 -13 -12 -13 -24
2 -10 13 -15 15 -24 6z"/>
<path d="M2073 4883 c9 -2 23 -2 30 0 6 3 -1 5 -18 5 -16 0 -22 -2 -12 -5z"/>
<path d="M2270 4872 c0 -6 9 -12 20 -15 11 -3 20 -3 20 -1 0 2 -9 8 -20 14
-11 6 -20 7 -20 2z"/>
<path d="M1868 4863 c7 -3 16 -2 19 1 4 3 -2 6 -13 5 -11 0 -14 -3 -6 -6z"/>
<path d="M1585 4850 c-3 -5 -2 -10 4 -10 5 0 13 5 16 10 3 6 2 10 -4 10 -5 0
-13 -4 -16 -10z"/>
<path d="M3150 4845 c-32 -9 -38 -13 -20 -14 42 -1 100 11 94 20 -7 11 -18 10
-74 -6z"/>
<path d="M1735 4840 c-16 -7 -17 -9 -3 -9 9 -1 20 4 23 9 7 11 7 11 -20 0z"/>
<path d="M2018 4843 c-22 -6 -23 -21 -2 -44 12 -13 22 -16 39 -9 17 6 27 5 35
-6 7 -7 20 -14 29 -13 13 0 13 2 1 6 -20 8 -40 29 -40 42 0 15 -33 14 -49 -1
-11 -11 -11 -9 -2 10 6 12 10 21 9 21 -2 -1 -11 -3 -20 -6z"/>
<path d="M2090 4841 c8 -6 11 -11 5 -11 -11 -1 35 -29 47 -30 14 0 -3 28 -20
34 -9 3 -24 9 -32 12 -13 5 -13 4 0 -5z"/>
<path d="M2210 4835 c7 -8 19 -15 27 -15 8 0 11 -5 8 -10 -4 -6 4 -20 17 -31
l23 -21 -27 16 c-32 19 -84 21 -94 4 -5 -8 2 -9 24 -5 33 7 68 -15 56 -35 -7
-12 44 -7 80 8 14 5 17 4 12 -4 -4 -7 -4 -12 -1 -12 12 0 65 34 65 41 0 14
-143 79 -173 79 -25 0 -28 -2 -17 -15z"/>
<path d="M1925 4823 c-19 -15 -18 -15 18 -10 24 4 37 2 37 -5 0 -6 3 -8 6 -5
9 8 -15 37 -30 37 -6 0 -20 -8 -31 -17z"/>
<path d="M1695 4780 c-3 -5 -1 -10 4 -10 6 0 11 5 11 10 0 6 -2 10 -4 10 -3 0
-8 -4 -11 -10z"/>
<path d="M2025 4760 c3 -5 10 -10 16 -10 5 0 9 5 9 10 0 6 -7 10 -16 10 -8 0
-12 -4 -9 -10z"/>
<path d="M829 4732 c-5 -15 -11 -32 -14 -39 -3 -9 12 -66 22 -82 1 -2 10 6 20
18 22 27 72 34 95 14 14 -13 20 -13 46 1 18 9 42 13 59 10 22 -4 46 4 101 36
39 23 72 46 72 52 0 14 -108 2 -166 -18 -55 -19 -165 -17 -157 2 3 8 4 14 2
14 -2 0 -19 4 -37 9 -30 9 -34 8 -43 -17z"/>
<path d="M2208 4743 c7 -3 16 -2 19 1 4 3 -2 6 -13 5 -11 0 -14 -3 -6 -6z"/>
<path d="M2560 4740 c0 -5 5 -10 11 -10 5 0 7 5 4 10 -3 6 -8 10 -11 10 -2 0
-4 -4 -4 -10z"/>
<path d="M1698 4733 c7 -3 16 -2 19 1 4 3 -2 6 -13 5 -11 0 -14 -3 -6 -6z"/>
<path d="M1747 4725 c10 -7 21 -11 25 -9 16 10 7 19 -18 20 -23 2 -24 1 -7
-11z"/>
<path d="M2260 4716 c0 -2 9 -6 20 -9 11 -3 18 -1 14 4 -5 9 -34 13 -34 5z"/>
<path d="M1618 4697 c-35 -10 -52 -27 -27 -27 6 0 17 -7 25 -15 13 -12 19 -12
50 5 39 23 54 26 36 8 -19 -19 -14 -38 11 -38 28 0 55 38 35 51 -11 7 -10 9 1
9 8 0 11 3 8 7 -11 11 -99 10 -139 0z"/>
<path d="M1786 4693 c-13 -14 -6 -35 10 -29 9 4 27 0 39 -8 23 -15 65 -11 65
6 0 5 -9 6 -20 3 -11 -4 -20 -3 -19 2 3 19 -2 27 -10 14 -8 -12 -13 -12 -34 2
-14 9 -27 13 -31 10z"/>
<path d="M1545 4639 c-4 -6 -5 -13 -2 -16 7 -7 27 6 27 18 0 12 -17 12 -25 -2z"/>
<path d="M3485 4640 c3 -5 14 -10 23 -10 15 0 15 2 2 10 -20 13 -33 13 -25 0z"/>
<path d="M1755 4630 c3 -5 8 -10 11 -10 2 0 4 5 4 10 0 6 -5 10 -11 10 -5 0
-7 -4 -4 -10z"/>
<path d="M1649 4604 c-6 -8 -8 -14 -3 -15 24 -3 71 4 84 13 13 8 13 9 0 5 -8
-2 -27 0 -42 4 -19 5 -31 3 -39 -7z"/>
<path d="M3470 4600 c11 -7 11 -10 2 -10 -7 0 -10 -5 -6 -11 4 -8 9 -7 15 2
13 21 11 29 -8 29 -15 0 -16 -2 -3 -10z"/>
<path d="M1600 4580 c0 -5 5 -10 11 -10 5 0 7 5 4 10 -3 6 -8 10 -11 10 -2 0
-4 -4 -4 -10z"/>
<path d="M2890 4550 c0 -5 5 -10 11 -10 5 0 7 5 4 10 -3 6 -8 10 -11 10 -2 0
-4 -4 -4 -10z"/>
<path d="M1217 4443 c-19 -3 -31 -13 -38 -31 -5 -15 -18 -43 -29 -63 -11 -20
-20 -40 -20 -43 0 -14 68 63 75 85 8 23 8 23 15 4 7 -19 7 -19 14 3 4 12 12
22 17 22 5 0 9 7 9 15 0 8 -3 14 -7 14 -5 -1 -21 -4 -36 -6z"/>
<path d="M2140 3703 c1 -18 17 -28 46 -28 27 0 30 2 20 17 -10 17 -66 26 -66
11z"/>
<path d="M807 3480 c-25 -27 -27 -32 -18 -71 5 -24 8 -46 5 -50 -8 -14 31 -34
70 -35 67 -1 169 -24 188 -41 10 -9 28 -21 41 -27 32 -16 51 -60 37 -86 -20
-38 -69 -53 -180 -57 -147 -6 -147 -6 -155 -53 -5 -30 -12 -40 -25 -40 -10 0
-20 -5 -22 -11 -2 -6 -19 -12 -38 -14 -20 -2 -34 -8 -32 -15 1 -6 -2 -9 -8 -5
-5 3 -10 15 -10 26 0 10 -5 18 -11 17 -6 -2 -19 20 -29 47 -14 42 -21 51 -45
53 -18 2 -31 -2 -37 -12 -5 -9 -13 -14 -19 -11 -5 4 -8 -4 -7 -17 1 -13 -4
-46 -11 -74 -16 -67 -47 -90 -130 -98 -78 -8 -105 -25 -121 -79 -7 -23 -28
-75 -47 -114 -28 -60 -38 -73 -57 -73 -13 0 -31 -9 -41 -20 -10 -11 -24 -20
-31 -20 -16 0 -45 -40 -38 -52 3 -4 2 -8 -3 -8 -30 0 -33 -59 -33 -643 l0
-588 23 6 c12 4 26 11 32 16 5 5 19 9 31 9 22 0 161 -50 199 -72 97 -56 117
-62 235 -62 118 -1 210 17 273 53 24 13 27 21 27 64 0 33 7 58 20 77 27 38 85
73 107 65 25 -8 64 -44 92 -85 14 -19 26 -37 28 -39 1 -2 21 9 43 24 38 26 40
30 40 80 0 44 6 61 40 112 54 80 113 112 232 129 48 6 105 21 126 32 28 14 68
22 138 27 86 5 102 4 125 -12 121 -83 137 -91 199 -102 107 -18 149 -64 150
-166 2 -107 3 -108 86 -150 41 -20 76 -36 78 -34 56 76 58 128 10 252 -66 169
-101 296 -48 172 14 -33 30 -68 35 -77 5 -10 9 -25 9 -33 0 -8 5 -15 10 -15 6
0 10 9 10 20 0 11 7 20 16 20 9 0 12 5 8 11 -5 8 1 10 18 7 22 -4 26 0 38 41
17 58 19 283 2 289 -7 2 -12 16 -12 31 0 15 -6 33 -12 39 -10 10 -10 17 -1 31
7 10 9 28 7 38 -3 11 1 27 10 35 21 21 75 164 82 220 4 26 3 55 -1 65 -5 10
-8 21 -7 25 3 14 -59 -2 -80 -22 -19 -18 -30 -21 -55 -19 -5 0 -7 6 -7 13 2
23 -37 5 -47 -21 -9 -25 -47 -29 -41 -5 3 18 -16 14 -39 -6 -42 -40 -165 -56
-205 -27 -19 13 -25 12 -60 -5 -21 -11 -53 -20 -71 -20 -17 0 -35 -5 -38 -10
-6 -10 -123 -7 -190 6 -16 3 -50 -2 -74 -10 -24 -9 -45 -16 -46 -16 -9 0 -25
69 -25 104 0 37 -12 101 -26 148 -9 29 24 10 42 -24 22 -42 55 -51 117 -33 28
8 67 26 87 39 30 20 37 32 47 81 7 32 10 61 8 64 -7 7 -155 -29 -180 -44 -33
-20 -93 -27 -117 -14 -30 16 -38 28 -38 60 0 14 -20 88 -44 165 -47 150 -59
194 -51 194 10 0 90 -45 97 -54 4 -6 8 -23 8 -37 0 -18 8 -29 26 -38 32 -14
54 0 54 34 0 25 20 43 105 98 47 30 101 94 90 105 -3 3 -16 -5 -29 -17 -23
-21 -25 -21 -139 -10 -109 11 -118 11 -155 -9 -23 -12 -49 -18 -65 -15 -22 4
-27 2 -27 -14 0 -10 5 -24 11 -30 17 -17 -3 -22 -41 -9 -49 16 -113 112 -113
170 0 44 42 129 68 140 8 3 15 13 15 21 0 14 -18 16 -148 13 l-149 -3 -40 35
c-22 19 -46 45 -53 58 -18 29 -39 27 -73 -8z m1663 -1050 c0 -5 -2 -10 -4 -10
-3 0 -8 5 -11 10 -3 6 -1 10 4 10 6 0 11 -4 11 -10z m-1763 -62 c70 -26 125
-80 159 -156 23 -53 32 -122 16 -122 -4 0 -23 16 -42 35 -19 20 -50 42 -69 50
-30 14 -35 13 -60 -4 -18 -12 -32 -16 -46 -10 -43 17 -80 10 -107 -21 -23 -27
-31 -30 -65 -25 -21 4 -46 8 -57 9 -10 1 -41 -3 -69 -11 -99 -25 -139 -12
-139 49 0 99 109 197 221 198 20 1 59 7 86 15 71 19 106 18 172 -7z"/>
<path d="M3213 3298 c-34 -24 -45 -45 -15 -29 17 9 59 51 51 51 -2 0 -19 -10
-36 -22z"/>
<path d="M1540 2869 c-14 -6 -38 -9 -53 -6 -15 2 -30 0 -34 -5 -8 -14 19 -128
29 -122 5 3 17 -5 27 -17 15 -19 27 -22 74 -21 44 1 64 8 103 33 30 21 67 36
103 41 54 9 101 30 101 47 0 10 -86 31 -175 42 -38 4 -88 10 -110 13 -22 3
-51 1 -65 -5z"/>
<path d="M2435 2499 c-4 -6 -5 -13 -2 -16 7 -7 27 6 27 18 0 12 -17 12 -25 -2z"/>
<path d="M2260 2430 c0 -5 7 -10 16 -10 8 0 12 5 9 10 -3 6 -10 10 -16 10 -5
0 -9 -4 -9 -10z"/>
<path d="M3488 2213 c6 -2 18 -2 25 0 6 3 1 5 -13 5 -14 0 -19 -2 -12 -5z"/>
<path d="M3385 2170 c-3 -6 1 -7 9 -4 18 7 21 14 7 14 -6 0 -13 -4 -16 -10z"/>
<path d="M3275 2125 c-58 -36 -88 -60 -204 -168 -49 -45 -66 -56 -73 -46 -6
11 -8 9 -6 -6 2 -13 -5 -23 -19 -30 -13 -5 -23 -14 -23 -19 0 -10 -52 -59
-136 -131 -54 -45 -265 -255 -306 -304 -10 -12 -18 -25 -18 -30 0 -6 -9 -16
-20 -24 -11 -8 -17 -17 -13 -21 4 -3 -3 -14 -16 -22 -17 -13 -20 -19 -10 -30
9 -11 7 -14 -10 -14 -18 0 -21 -4 -16 -20 5 -14 2 -20 -10 -20 -11 0 -14 -6
-9 -25 5 -19 2 -25 -11 -25 -12 0 -15 -5 -10 -22 6 -16 4 -20 -9 -15 -8 3 -18
2 -21 -3 -3 -4 0 -10 6 -12 12 -4 6 -16 -66 -135 -27 -45 -51 -80 -54 -78 -2
3 1 10 7 17 9 12 24 67 62 233 5 21 8 41 6 42 -10 10 -126 -309 -126 -345 0
-13 3 -12 16 4 32 40 -8 -29 -105 -181 -114 -179 -161 -268 -161 -302 0 -29
-50 -174 -81 -235 -26 -51 -27 -97 -3 -115 15 -11 15 -13 2 -13 -8 0 -21 -7
-28 -15 -10 -13 -9 -15 9 -15 13 0 26 10 33 25 6 14 14 25 18 25 7 0 22 44 41
120 18 73 77 182 125 228 41 40 49 57 45 90 -1 7 41 65 95 129 53 63 115 145
137 182 22 36 44 67 48 69 5 2 9 9 9 16 0 15 54 56 75 56 21 0 19 17 -2 23
-17 4 -17 5 0 6 9 0 17 6 17 11 0 6 7 10 15 10 8 0 15 7 15 15 0 8 5 15 10 15
6 0 10 9 10 19 0 17 20 33 43 35 5 1 15 9 22 19 18 25 52 14 51 -15 -1 -11 5
-23 12 -26 10 -3 12 6 9 37 -4 43 13 57 31 26 7 -14 12 -13 33 8 13 13 32 27
42 30 15 6 16 4 7 -13 -5 -10 -15 -22 -20 -25 -16 -10 -12 -28 5 -21 24 9 18
-3 -20 -38 -19 -19 -35 -37 -35 -41 0 -4 -20 -27 -45 -51 -25 -23 -45 -47 -45
-53 0 -6 -6 -8 -14 -5 -8 3 -17 0 -22 -7 -5 -8 -3 -10 6 -4 10 6 12 4 7 -9 -4
-10 -7 -20 -7 -22 0 -3 -4 -2 -10 1 -5 3 -10 -1 -10 -9 0 -9 -5 -16 -10 -16
-18 0 -52 -38 -48 -52 6 -16 -43 -38 -70 -31 -12 3 -22 -1 -25 -11 -4 -10 -1
-16 8 -16 18 0 20 -16 3 -18 -7 0 -22 -3 -33 -6 -11 -2 -22 -5 -25 -5 -5 -1
-6 -27 -1 -68 0 -7 6 -13 12 -13 8 0 10 12 6 33 -5 33 -4 33 26 28 26 -4 28
-6 10 -9 -22 -3 -33 -22 -13 -22 5 0 7 -7 4 -15 -4 -8 -2 -15 4 -15 6 0 12 6
15 13 2 6 8 9 12 4 11 -9 -26 -38 -42 -32 -7 2 -17 -4 -22 -13 -6 -10 -11 -12
-11 -4 0 6 -7 12 -15 12 -16 0 -20 -12 -7 -24 17 -18 0 -82 -19 -70 -4 2 -12
-3 -19 -11 -7 -8 -20 -15 -28 -15 -12 0 -13 -3 -4 -12 8 -8 15 -8 27 2 8 7 18
10 22 6 9 -9 -1 -17 -28 -20 -73 -11 -84 -17 -96 -54 -10 -33 -7 -64 4 -34 6
15 33 16 33 1 0 -5 -16 -17 -36 -25 -20 -8 -38 -23 -41 -33 -3 -10 -16 -24
-29 -32 -14 -7 -22 -19 -20 -26 7 -16 -28 -53 -49 -53 -31 0 -14 -20 18 -21
l32 -1 -40 -12 c-32 -9 -41 -17 -43 -39 -2 -16 -9 -27 -19 -27 -11 0 -14 -6
-9 -25 6 -23 4 -25 -26 -25 l-33 -1 25 -15 c20 -12 21 -14 4 -9 -14 4 -21 1
-21 -10 0 -13 165 -15 1475 -15 l1475 0 -8 113 c-5 61 -9 198 -10 302 -1 228
-14 285 -105 474 -114 235 -214 364 -380 493 -36 28 -69 56 -75 63 -5 6 -41
33 -78 58 -37 26 -106 79 -153 119 -111 95 -203 166 -186 145 8 -9 11 -20 8
-25 -3 -5 -65 -12 -138 -15 -220 -11 -452 -85 -562 -180 -16 -14 -32 -26 -35
-25 -20 2 -34 -6 -68 -37 -28 -26 -39 -31 -41 -20 -4 19 -38 20 -45 1 -3 -8
-14 -15 -24 -15 -10 0 -49 -4 -88 -9 -39 -5 -80 -5 -93 -1 -13 5 -35 9 -49 9
-18 0 -24 4 -20 14 3 8 1 17 -6 20 -9 3 -8 7 2 14 7 5 11 14 7 20 -3 5 0 10 7
9 33 -1 46 4 41 17 -3 8 7 18 26 26 20 8 29 18 26 26 -4 8 -8 20 -11 27 -3 8
9 24 28 38 19 13 76 63 128 110 138 126 169 152 169 141 0 -6 -6 -12 -12 -15
-7 -2 -10 -8 -6 -12 8 -9 57 26 58 42 0 6 5 15 12 19 7 4 8 3 4 -4 -9 -15 -6
-15 40 4 34 14 37 17 21 29 -16 11 -16 13 -1 26 10 8 20 14 23 14 3 0 5 8 4
17 -2 12 2 15 14 11 12 -5 14 -3 8 7 -6 10 -4 12 9 7 10 -4 15 -3 11 3 -8 12
63 44 132 58 47 11 55 9 93 -12 23 -13 93 -81 157 -152 63 -71 118 -131 120
-134 3 -3 -2 10 -12 29 -9 18 -33 50 -53 70 -21 20 -68 69 -106 109 -37 39
-71 72 -75 72 -3 0 -19 12 -34 26 -25 23 -34 26 -74 20 -24 -3 -71 -17 -104
-30 -59 -23 -81 -21 -35 4 24 12 25 40 2 40 -7 0 -38 -16 -71 -35z m5 -59 c0
-3 -4 -8 -10 -11 -5 -3 -10 -1 -10 4 0 6 5 11 10 11 6 0 10 -2 10 -4z m-170
-139 c0 -2 -12 -14 -27 -28 l-28 -24 24 28 c23 25 31 32 31 24z m-280 -261 c0
-3 -4 -8 -10 -11 -5 -3 -10 -1 -10 4 0 6 5 11 10 11 6 0 10 -2 10 -4z m1345
-190 c239 -230 339 -347 444 -518 42 -70 12 -39 -49 50 -33 48 -87 121 -121
162 -84 103 -319 335 -404 399 -38 29 -70 58 -70 64 0 7 -11 14 -25 16 -23 3
-24 4 -5 12 11 4 23 7 27 6 4 -1 96 -87 203 -191z m-439 166 c27 -10 61 -28
74 -40 13 -12 32 -24 42 -28 18 -5 18 -7 3 -24 -11 -12 -32 -18 -68 -19 -29 0
-61 -2 -72 -3 -14 -2 -19 2 -17 15 2 9 -1 17 -7 17 -5 0 -17 3 -27 7 -12 4
-15 2 -12 -8 3 -8 11 -13 17 -11 7 1 10 -2 6 -8 -4 -7 -13 -5 -27 4 -15 11
-27 12 -46 5 -31 -12 -59 -3 -73 23 -10 18 -12 19 -29 3 -10 -9 -28 -16 -41
-17 -13 0 -34 -5 -46 -11 -16 -7 -26 -7 -35 1 -10 8 -25 6 -58 -9 -24 -11 -47
-25 -51 -30 -9 -15 -44 -7 -44 11 0 34 229 142 268 127 9 -3 161 5 187 11 3 1
28 -7 56 -16z m168 -117 c-4 -9 0 -15 7 -15 16 0 64 -37 125 -95 23 -22 102
-92 177 -155 74 -63 140 -124 147 -134 6 -10 -23 12 -67 50 -85 75 -189 155
-322 246 -47 32 -81 58 -76 58 5 0 0 7 -11 15 -14 11 -16 15 -4 15 12 0 10 4
-4 15 -19 14 -19 15 7 15 19 0 25 -4 21 -15z m-234 -15 c0 -5 -4 -10 -10 -10
-5 0 -10 5 -10 10 0 6 5 10 10 10 6 0 10 -4 10 -10z m-1040 -739 c0 -11 -17
-24 -52 -39 -38 -16 -35 -2 5 25 35 24 47 28 47 14z m1574 -60 c31 -34 3 -24
-30 10 -21 23 -23 29 -9 21 11 -5 29 -20 39 -31z m-1694 -11 c0 -5 -7 -10 -15
-10 -8 0 -15 5 -15 10 0 6 7 10 15 10 8 0 15 -4 15 -10z m1805 -110 c32 -36
69 -76 82 -89 13 -12 21 -26 18 -29 -4 -4 -27 16 -52 43 -26 28 -66 71 -90 96
-43 46 -55 67 -30 52 7 -4 39 -37 72 -73z m216 -2 c8 -15 8 -18 0 -14 -6 4
-16 16 -22 28 -8 15 -8 18 0 14 6 -4 16 -16 22 -28z m-2141 -28 c-20 -13 -33
-13 -25 0 3 6 14 10 23 10 15 0 15 -2 2 -10z m-130 -145 c-7 -8 -17 -12 -22
-9 -6 4 -5 10 3 15 22 14 33 10 19 -6z m2210 -6 c0 -6 -4 -7 -10 -4 -5 3 -10
11 -10 16 0 6 5 7 10 4 6 -3 10 -11 10 -16z"/>
<path d="M3815 1560 c4 -6 11 -8 16 -5 14 9 11 15 -7 15 -8 0 -12 -5 -9 -10z"/>
<path d="M3240 1530 c-8 -5 -12 -11 -10 -14 3 -2 14 2 24 10 22 15 10 19 -14
4z"/>
<path d="M3600 2133 c62 -24 120 -41 115 -34 -6 11 -93 41 -114 40 -14 0 -14
-1 -1 -6z"/>
<path d="M3030 1960 c0 -5 5 -10 10 -10 6 0 10 5 10 10 0 6 -4 10 -10 10 -5 0
-10 -4 -10 -10z"/>
<path d="M3150 1870 c-9 -6 -10 -10 -3 -10 6 0 15 5 18 10 8 12 4 12 -15 0z"/>
<path d="M3083 1833 c-15 -5 -17 -23 -4 -23 5 0 11 7 15 15 3 8 4 15 3 14 -1
0 -8 -3 -14 -6z"/>
<path d="M3005 1679 c-8 -12 -36 -23 -84 -34 -23 -5 -31 -4 -27 4 4 6 1 11 -8
11 -8 0 -18 -4 -21 -10 -3 -5 -1 -10 4 -10 6 0 11 -4 11 -9 0 -5 -12 -8 -26
-5 -17 3 -23 1 -19 -7 8 -12 61 -6 108 13 23 9 31 8 38 -3 6 -9 9 -10 9 -2 0
7 12 19 28 27 23 13 24 15 7 16 -17 0 -17 2 -5 10 9 6 10 10 3 10 -6 0 -15 -5
-18 -11z"/>
<path d="M2915 1670 c-3 -5 1 -10 10 -10 9 0 13 5 10 10 -3 6 -8 10 -10 10 -2
0 -7 -4 -10 -10z"/>
<path d="M2360 1580 c0 -5 4 -10 9 -10 6 0 13 5 16 10 3 6 -1 10 -9 10 -9 0
-16 -4 -16 -10z"/>
<path d="M1865 1107 c-17 -6 -48 -23 -68 -35 -39 -25 -41 -25 -164 -6 -49 7
-138 -16 -176 -47 -18 -14 -27 -30 -27 -50 0 -16 -4 -29 -10 -29 -5 0 -10 -9
-10 -21 0 -31 -39 -109 -54 -109 -8 0 -16 -5 -18 -11 -2 -6 -25 -13 -51 -16
-41 -5 -47 -3 -47 13 0 11 -14 31 -30 46 -24 21 -40 26 -78 26 -81 0 -117 8
-114 26 2 9 -3 16 -9 16 -7 0 -10 -3 -6 -6 3 -3 -5 -17 -19 -31 -13 -13 -24
-32 -24 -41 0 -16 -58 -42 -94 -42 -8 0 -19 -7 -24 -15 -8 -16 -34 -22 -99
-24 -24 -1 -33 -6 -33 -18 0 -15 -2 -15 -9 -4 -10 15 -3 44 8 37 4 -3 11 -2
16 2 15 11 47 72 38 72 -4 0 9 12 30 27 20 14 37 30 37 35 0 4 5 8 10 8 12 0
50 37 50 49 0 18 -50 41 -88 41 -21 0 -91 -18 -156 -40 -64 -22 -147 -43 -184
-46 -37 -4 -85 -15 -107 -24 -23 -10 -56 -21 -75 -25 -19 -4 -51 -24 -71 -44
-20 -20 -44 -42 -52 -48 -19 -15 -51 -17 -42 -3 3 6 -3 10 -14 10 -19 0 -26
10 -22 33 0 4 -6 7 -14 7 -9 0 -21 11 -27 25 -6 14 -17 25 -25 25 -11 0 -13
-78 -13 -435 l0 -435 820 0 820 0 0 55 c0 30 -6 74 -14 97 -19 55 -33 150 -40
259 -5 77 -4 89 15 113 27 35 68 44 153 33 146 -19 133 -25 171 78 52 144 116
248 231 377 47 52 62 75 52 79 -2 1 -50 5 -108 9 -58 5 -127 11 -155 14 -29 3
-63 0 -80 -7z m-1175 -377 c0 -5 -4 -10 -10 -10 -5 0 -10 5 -10 10 0 6 5 10
10 10 6 0 10 -4 10 -10z"/>
<path d="M2698 1073 c7 -3 16 -2 19 1 4 3 -2 6 -13 5 -11 0 -14 -3 -6 -6z"/>
<path d="M2575 1047 c-12 -10 -14 -16 -7 -21 7 -4 16 -5 21 -2 5 4 11 0 14 -6
7 -21 17 -4 10 20 -6 26 -12 27 -38 9z"/>
<path d="M2640 1015 c0 -8 5 -15 10 -15 6 0 10 7 10 15 0 8 -4 15 -10 15 -5 0
-10 -7 -10 -15z"/>
<path d="M2514 989 c-2 -4 8 -10 23 -12 l28 -4 -28 -2 c-36 -1 -25 -21 12 -21
34 0 40 6 34 29 -5 18 -59 26 -69 10z"/>
<path d="M2488 893 c22 -9 13 -33 -12 -33 -33 0 -40 -14 -16 -35 18 -16 20
-16 44 10 23 25 24 28 8 46 -9 10 -21 19 -27 18 -5 0 -4 -3 3 -6z"/>
<path d="M2395 789 c-4 -6 -4 -13 -1 -16 3 -4 6 -2 6 4 0 5 14 8 30 5 18 -3
30 0 30 7 0 14 -57 15 -65 0z"/>
<path d="M2310 635 c-7 -8 -21 -15 -31 -15 -11 0 -19 -5 -19 -11 0 -6 9 -8 23
-4 26 8 53 32 45 40 -3 3 -11 -1 -18 -10z"/>
<path d="M2110 320 c0 -5 5 -10 10 -10 6 0 10 5 10 10 0 6 -4 10 -10 10 -5 0
-10 -4 -10 -10z"/>
<path d="M1797 63 c-4 -3 -7 -13 -7 -22 1 -13 3 -13 11 2 11 19 8 33 -4 20z"/>
</g>
</svg>
